<svg width="64" height="64" viewBox="0 0 64 64" fill="none" xmlns="http://www.w3.org/2000/svg">
<circle cx="32" cy="32" r="32" fill="#FF732B"/>
<path d="M40.6672 31.0635L29.9869 20.3834C29.7398 20.1362 29.4101 20 29.0585 20C28.7069 20 28.3771 20.1362 28.1301 20.3834L27.3436 21.1697C26.8318 21.6821 26.8318 22.5149 27.3436 23.0265L36.3121 31.995L27.3336 40.9735C27.0866 41.2207 26.9502 41.5503 26.9502 41.9017C26.9502 42.2535 27.0866 42.583 27.3336 42.8305L28.1201 43.6166C28.3674 43.8638 28.6969 44 29.0485 44C29.4001 44 29.7299 43.8638 29.9769 43.6166L40.6672 32.9267C40.9148 32.6787 41.0508 32.3476 41.05 31.9956C41.0508 31.6422 40.9148 31.3113 40.6672 31.0635Z" fill="white"/>
</svg>
